<?xml version="1.0" encoding="UTF-8"?>
<svg xmlns="http://www.w3.org/2000/svg" xmlns:xlink="http://www.w3.org/1999/xlink" width="1200" height="500" viewBox="0 0 1200 500">
<defs>
<g>
<g id="glyph-0-0-10bf2094">
<path d="M 7.21875 -3.03125 C 7.21875 -3.03125 0.953125 -3.03125 0.953125 -3.03125 C 0.953125 -3.03125 0.953125 -3.96875 0.953125 -3.96875 C 0.953125 -3.96875 7.21875 -3.96875 7.21875 -3.96875 C 7.21875 -3.96875 7.21875 -3.03125 7.21875 -3.03125 Z M 7.21875 -3.03125 "/>
</g>
<g id="glyph-0-1-10bf2094">
<path d="M 7.09375 -4.78125 C 7.09375 -1.515625 5.953125 0.203125 3.84375 0.203125 C 1.71875 0.203125 0.609375 -1.515625 0.609375 -4.859375 C 0.609375 -8.1875 1.703125 -9.921875 3.84375 -9.921875 C 6 -9.921875 7.09375 -8.21875 7.09375 -4.78125 Z M 5.84375 -4.890625 C 5.84375 -7.546875 5.1875 -8.828125 3.84375 -8.828125 C 2.515625 -8.828125 1.859375 -7.5625 1.859375 -4.84375 C 1.859375 -2.125 2.515625 -0.8125 3.828125 -0.8125 C 5.1875 -0.8125 5.84375 -2.078125 5.84375 -4.890625 Z M 5.84375 -4.890625 "/>
</g>
<g id="glyph-0-2-10bf2094">
<path d="M 2.671875 0 C 2.671875 0 1.21875 0 1.21875 0 C 1.21875 0 1.21875 -1.453125 1.21875 -1.453125 C 1.21875 -1.453125 2.671875 -1.453125 2.671875 -1.453125 C 2.671875 -1.453125 2.671875 0 2.671875 0 Z M 2.671875 0 "/>
</g>
<g id="glyph-0-3-10bf2094">
<path d="M 7.15625 -7.015625 C 7.15625 -5.796875 6.4375 -4.765625 5.046875 -4.015625 C 5.046875 -4.015625 3.65625 -3.265625 3.65625 -3.265625 C 2.4375 -2.546875 1.984375 -2.03125 1.859375 -1.21875 C 1.859375 -1.21875 7.078125 -1.21875 7.078125 -1.21875 C 7.078125 -1.21875 7.078125 0 7.078125 0 C 7.078125 0 0.46875 0 0.46875 0 C 0.59375 -2.1875 1.1875 -3.125 3.265625 -4.296875 C 3.265625 -4.296875 4.546875 -5.03125 4.546875 -5.03125 C 5.4375 -5.53125 5.890625 -6.203125 5.890625 -6.984375 C 5.890625 -8.046875 5.046875 -8.84375 3.9375 -8.84375 C 2.71875 -8.84375 2.03125 -8.140625 1.9375 -6.484375 C 1.9375 -6.484375 0.703125 -6.484375 0.703125 -6.484375 C 0.765625 -8.890625 1.953125 -9.921875 3.96875 -9.921875 C 5.859375 -9.921875 7.15625 -8.6875 7.15625 -7.015625 Z M 7.15625 -7.015625 "/>
</g>
<g id="glyph-0-4-10bf2094">
<path d="M 7.28125 -2.375 C 7.28125 -2.375 5.8125 -2.375 5.8125 -2.375 C 5.8125 -2.375 5.8125 0 5.8125 0 C 5.8125 0 4.578125 0 4.578125 0 C 4.578125 0 4.578125 -2.375 4.578125 -2.375 C 4.578125 -2.375 0.390625 -2.375 0.390625 -2.375 C 0.390625 -2.375 0.390625 -3.6875 0.390625 -3.6875 C 0.390625 -3.6875 4.90625 -9.921875 4.90625 -9.921875 C 4.90625 -9.921875 5.8125 -9.921875 5.8125 -9.921875 C 5.8125 -9.921875 5.8125 -3.484375 5.8125 -3.484375 C 5.8125 -3.484375 7.28125 -3.484375 7.28125 -3.484375 C 7.28125 -3.484375 7.28125 -2.375 7.28125 -2.375 Z M 4.578125 -3.484375 C 4.578125 -3.484375 4.578125 -7.828125 4.578125 -7.828125 C 4.578125 -7.828125 1.46875 -3.484375 1.46875 -3.484375 C 1.46875 -3.484375 4.578125 -3.484375 4.578125 -3.484375 Z M 4.578125 -3.484375 "/>
</g>
<g id="glyph-0-5-10bf2094">
<path d="M 4.859375 0 C 4.859375 0 3.625 0 3.625 0 C 3.625 0 3.625 -7.0625 3.625 -7.0625 C 3.625 -7.0625 1.421875 -7.0625 1.421875 -7.0625 C 1.421875 -7.0625 1.421875 -7.953125 1.421875 -7.953125 C 3.328125 -8.1875 3.609375 -8.40625 4.046875 -9.921875 C 4.046875 -9.921875 4.859375 -9.921875 4.859375 -9.921875 C 4.859375 -9.921875 4.859375 0 4.859375 0 Z M 4.859375 0 "/>
</g>
<g id="glyph-0-6-10bf2094">
<path d="M 7.078125 -2.890625 C 7.078125 -1.015625 5.765625 0.203125 3.71875 0.203125 C 1.6875 0.203125 0.609375 -0.78125 0.453125 -3 C 0.453125 -3 1.6875 -3 1.6875 -3 C 1.765625 -1.546875 2.421875 -0.875 3.765625 -0.875 C 5.046875 -0.875 5.828125 -1.625 5.828125 -2.875 C 5.828125 -3.96875 5.125 -4.625 3.765625 -4.625 C 3.765625 -4.625 3.09375 -4.625 3.09375 -4.625 C 3.09375 -4.625 3.09375 -5.65625 3.09375 -5.65625 C 5.0625 -5.65625 5.53125 -6.09375 5.53125 -7.15625 C 5.53125 -8.203125 4.875 -8.84375 3.78125 -8.84375 C 2.515625 -8.84375 1.921875 -8.1875 1.890625 -6.71875 C 1.890625 -6.71875 0.65625 -6.71875 0.65625 -6.71875 C 0.703125 -8.828125 1.765625 -9.921875 3.765625 -9.921875 C 5.65625 -9.921875 6.796875 -8.90625 6.796875 -7.203125 C 6.796875 -6.203125 6.328125 -5.5625 5.40625 -5.1875 C 6.59375 -4.78125 7.078125 -4.09375 7.078125 -2.890625 Z M 7.078125 -2.890625 "/>
</g>
<g id="glyph-0-7-10bf2094">
<path d="M 10.640625 0 C 10.640625 0 9.484375 0 9.484375 0 C 9.484375 0 9.484375 -5.046875 9.484375 -5.046875 C 9.484375 -5.984375 8.984375 -6.53125 8.140625 -6.53125 C 7.1875 -6.53125 6.390625 -5.671875 6.390625 -4.609375 C 6.390625 -4.609375 6.390625 0 6.390625 0 C 6.390625 0 5.234375 0 5.234375 0 C 5.234375 0 5.234375 -5.046875 5.234375 -5.046875 C 5.234375 -5.984375 4.75 -6.53125 3.875 -6.53125 C 2.921875 -6.53125 2.15625 -5.671875 2.15625 -4.609375 C 2.15625 -4.609375 2.15625 0 2.15625 0 C 2.15625 0 1 0 1 0 C 1 0 1 -7.34375 1 -7.34375 C 1 -7.34375 2.0625 -7.34375 2.0625 -7.34375 C 2.0625 -7.34375 2.0625 -6.296875 2.0625 -6.296875 C 2.6875 -7.1875 3.328125 -7.546875 4.3125 -7.546875 C 5.265625 -7.546875 5.859375 -7.203125 6.28125 -6.421875 C 6.96875 -7.25 7.5625 -7.546875 8.546875 -7.546875 C 9.90625 -7.546875 10.640625 -6.8125 10.640625 -5.5 C 10.640625 -5.5 10.640625 0 10.640625 0 Z M 10.640625 0 "/>
</g>
<g id="glyph-0-8-10bf2094">
<path d="M 2.140625 0 C 2.140625 0 0.984375 0 0.984375 0 C 0.984375 0 0.984375 -7.34375 0.984375 -7.34375 C 0.984375 -7.34375 2.140625 -7.34375 2.140625 -7.34375 C 2.140625 -7.34375 2.140625 0 2.140625 0 Z M 2.296875 -8.4375 C 2.296875 -8.4375 0.84375 -8.4375 0.84375 -8.4375 C 0.84375 -8.4375 0.84375 -9.890625 0.84375 -9.890625 C 0.84375 -9.890625 2.296875 -9.890625 2.296875 -9.890625 C 2.296875 -9.890625 2.296875 -8.4375 2.296875 -8.4375 Z M 2.296875 -8.4375 "/>
</g>
<g id="glyph-0-9-10bf2094">
<path d="M 6.8125 0 C 6.8125 0 5.65625 0 5.65625 0 C 5.65625 0 5.65625 -5.078125 5.65625 -5.078125 C 5.65625 -5.96875 5.0625 -6.53125 4.140625 -6.53125 C 2.953125 -6.53125 2.140625 -5.546875 2.140625 -4.046875 C 2.140625 -4.046875 2.140625 0 2.140625 0 C 2.140625 0 0.984375 0 0.984375 0 C 0.984375 0 0.984375 -7.34375 0.984375 -7.34375 C 0.984375 -7.34375 2.0625 -7.34375 2.0625 -7.34375 C 2.0625 -7.34375 2.0625 -6.109375 2.0625 -6.109375 C 2.703125 -7.125 3.40625 -7.546875 4.5 -7.546875 C 5.90625 -7.546875 6.8125 -6.765625 6.8125 -5.546875 C 6.8125 -5.546875 6.8125 0 6.8125 0 Z M 6.8125 0 "/>
</g>
<g id="glyph-0-10-10bf2094">
<path d="M 7.140625 -3.609375 C 7.140625 -1.203125 5.875 0.203125 3.828125 0.203125 C 1.734375 0.203125 0.5 -1.203125 0.5 -3.671875 C 0.5 -6.125 1.75 -7.546875 3.8125 -7.546875 C 5.921875 -7.546875 7.140625 -6.140625 7.140625 -3.609375 Z M 5.921875 -3.625 C 5.921875 -5.453125 5.140625 -6.46875 3.828125 -6.46875 C 2.515625 -6.46875 1.71875 -5.4375 1.71875 -3.671875 C 1.71875 -1.890625 2.515625 -0.875 3.828125 -0.875 C 5.109375 -0.875 5.921875 -1.90625 5.921875 -3.625 Z M 5.921875 -3.625 "/>
</g>
<g id="glyph-0-11-10bf2094">
<path d="M 4.5 -6.3125 C 2.6875 -6.28125 2.140625 -5.453125 2.140625 -3.8125 C 2.140625 -3.8125 2.140625 0 2.140625 0 C 2.140625 0 0.984375 0 0.984375 0 C 0.984375 0 0.984375 -7.34375 0.984375 -7.34375 C 0.984375 -7.34375 2.046875 -7.34375 2.046875 -7.34375 C 2.046875 -7.34375 2.046875 -6 2.046875 -6 C 2.71875 -7.09375 3.296875 -7.546875 4.046875 -7.546875 C 4.203125 -7.546875 4.296875 -7.53125 4.5 -7.5 C 4.5 -7.5 4.5 -6.3125 4.5 -6.3125 Z M 4.5 -6.3125 "/>
</g>
<g id="glyph-0-12-10bf2094">
<path d="M 7.484375 -0.03125 C 7.109375 0.0625 6.9375 0.09375 6.6875 0.09375 C 6.125 0.09375 5.609375 -0.3125 5.484375 -0.875 C 4.84375 -0.1875 3.9375 0.203125 3 0.203125 C 1.515625 0.203125 0.59375 -0.578125 0.59375 -1.90625 C 0.59375 -2.796875 1.015625 -3.453125 1.875 -3.8125 C 2.328125 -3.984375 2.578125 -4.046875 4.234375 -4.25 C 5.15625 -4.375 5.453125 -4.578125 5.453125 -5.0625 C 5.453125 -5.0625 5.453125 -5.375 5.453125 -5.375 C 5.453125 -6.078125 4.859375 -6.46875 3.8125 -6.46875 C 2.71875 -6.46875 2.1875 -6.0625 2.09375 -5.171875 C 2.09375 -5.171875 0.90625 -5.171875 0.90625 -5.171875 C 0.984375 -6.859375 2.078125 -7.546875 3.84375 -7.546875 C 5.65625 -7.546875 6.609375 -6.84375 6.609375 -5.546875 C 6.609375 -5.546875 6.609375 -1.453125 6.609375 -1.453125 C 6.609375 -1.09375 6.828125 -0.875 7.234375 -0.875 C 7.3125 -0.875 7.359375 -0.875 7.484375 -0.90625 C 7.484375 -0.90625 7.484375 -0.03125 7.484375 -0.03125 Z M 5.453125 -2.53125 C 5.453125 -2.53125 5.453125 -3.625 5.453125 -3.625 C 5.046875 -3.4375 4.796875 -3.390625 3.5625 -3.21875 C 2.328125 -3.03125 1.8125 -2.703125 1.8125 -1.9375 C 1.8125 -1.140625 2.34375 -0.8125 3.25 -0.8125 C 4.375 -0.8125 5.453125 -1.484375 5.453125 -2.53125 Z M 5.453125 -2.53125 "/>
</g>
<g id="glyph-0-13-10bf2094">
<path d="M 2.140625 1.53125 C 2.140625 2.515625 1.453125 3.046875 0.140625 3.046875 C -0.046875 3.046875 -0.109375 3.03125 -0.25 3.015625 C -0.25 3.015625 -0.25 2.015625 -0.25 2.015625 C -0.25 2.015625 0.03125 2.03125 0.03125 2.03125 C 0.734375 2.078125 0.984375 1.765625 0.984375 1.0625 C 0.984375 1.0625 0.984375 -7.34375 0.984375 -7.34375 C 0.984375 -7.34375 2.140625 -7.34375 2.140625 -7.34375 C 2.140625 -7.34375 2.140625 1.53125 2.140625 1.53125 Z M 2.296875 -8.4375 C 2.296875 -8.4375 0.84375 -8.4375 0.84375 -8.4375 C 0.84375 -8.4375 0.84375 -9.890625 0.84375 -9.890625 C 0.84375 -9.890625 2.296875 -9.890625 2.296875 -9.890625 C 2.296875 -9.890625 2.296875 -8.4375 2.296875 -8.4375 Z M 2.296875 -8.4375 "/>
</g>
<g id="glyph-0-14-10bf2094">
<path d="M 2.109375 0 C 2.109375 0 0.953125 0 0.953125 0 C 0.953125 0 0.953125 -10.203125 0.953125 -10.203125 C 0.953125 -10.203125 2.109375 -10.203125 2.109375 -10.203125 C 2.109375 -10.203125 2.109375 0 2.109375 0 Z M 2.109375 0 "/>
</g>
<g id="glyph-0-15-10bf2094">
<path d="M 9.90625 -7.34375 C 9.90625 -7.34375 7.75 0 7.75 0 C 7.75 0 6.421875 0 6.421875 0 C 6.421875 0 4.9375 -5.75 4.9375 -5.75 C 4.9375 -5.75 3.53125 0 3.53125 0 C 3.53125 0 2.21875 0 2.21875 0 C 2.21875 0 0.078125 -7.34375 0.078125 -7.34375 C 0.078125 -7.34375 1.375 -7.34375 1.375 -7.34375 C 1.375 -7.34375 2.875 -1.625 2.875 -1.625 C 2.875 -1.625 4.265625 -7.34375 4.265625 -7.34375 C 4.265625 -7.34375 5.703125 -7.34375 5.703125 -7.34375 C 5.703125 -7.34375 7.140625 -1.625 7.140625 -1.625 C 7.140625 -1.625 8.59375 -7.34375 8.59375 -7.34375 C 8.59375 -7.34375 9.90625 -7.34375 9.90625 -7.34375 Z M 9.90625 -7.34375 "/>
</g>
<g id="glyph-0-16-10bf2094">
<path d="M 6.9375 0 C 6.9375 0 5.890625 0 5.890625 0 C 5.890625 0 5.890625 -1.078125 5.890625 -1.078125 C 5.265625 -0.171875 4.5625 0.203125 3.5625 0.203125 C 1.578125 0.203125 0.359375 -1.265625 0.359375 -3.734375 C 0.359375 -6.078125 1.609375 -7.546875 3.515625 -7.546875 C 4.5 -7.546875 5.28125 -7.15625 5.765625 -6.40625 C 5.765625 -6.40625 5.765625 -10.203125 5.765625 -10.203125 C 5.765625 -10.203125 6.9375 -10.203125 6.9375 -10.203125 C 6.9375 -10.203125 6.9375 0 6.9375 0 Z M 5.765625 -3.640625 C 5.765625 -5.328125 4.96875 -6.453125 3.703125 -6.453125 C 2.4375 -6.453125 1.578125 -5.375 1.578125 -3.671875 C 1.578125 -1.953125 2.4375 -0.875 3.71875 -0.875 C 4.953125 -0.875 5.765625 -1.953125 5.765625 -3.640625 Z M 5.765625 -3.640625 "/>
</g>
<g id="glyph-0-17-10bf2094">
<path d="M 6.796875 0 C 6.796875 0 5.640625 0 5.640625 0 C 5.640625 0 5.640625 -5.078125 5.640625 -5.078125 C 5.640625 -6.046875 4.953125 -6.53125 4.125 -6.53125 C 2.921875 -6.53125 2.140625 -5.546875 2.140625 -4.046875 C 2.140625 -4.046875 2.140625 0 2.140625 0 C 2.140625 0 0.984375 0 0.984375 0 C 0.984375 0 0.984375 -10.203125 0.984375 -10.203125 C 0.984375 -10.203125 2.140625 -10.203125 2.140625 -10.203125 C 2.140625 -10.203125 2.140625 -6.328125 2.140625 -6.328125 C 2.828125 -7.21875 3.453125 -7.546875 4.5 -7.546875 C 5.921875 -7.546875 6.796875 -6.78125 6.796875 -5.546875 C 6.796875 -5.546875 6.796875 0 6.796875 0 Z M 6.796875 0 "/>
</g>
<g id="glyph-0-18-10bf2094">
<path d="M 6.84375 -1.203125 C 6.84375 2.03125 5.859375 3.046875 3.5625 3.046875 C 1.84375 3.046875 0.765625 2.21875 0.640625 0.84375 C 0.640625 0.84375 1.828125 0.84375 1.828125 0.84375 C 1.96875 1.734375 2.6875 2.078125 3.609375 2.078125 C 4.96875 2.078125 5.765625 1.328125 5.765625 -0.609375 C 5.765625 -0.609375 5.765625 -1.109375 5.765625 -1.109375 C 5 -0.1875 4.359375 0.203125 3.4375 0.203125 C 1.703125 0.203125 0.40625 -1.28125 0.40625 -3.59375 C 0.40625 -5.984375 1.671875 -7.546875 3.53125 -7.546875 C 4.46875 -7.546875 5.1875 -7.140625 5.765625 -6.265625 C 5.765625 -6.265625 5.765625 -7.34375 5.765625 -7.34375 C 5.765625 -7.34375 6.84375 -7.34375 6.84375 -7.34375 C 6.84375 -7.34375 6.84375 -1.203125 6.84375 -1.203125 Z M 5.65625 -3.625 C 5.65625 -5.40625 4.90625 -6.46875 3.65625 -6.46875 C 2.40625 -6.46875 1.625 -5.4375 1.625 -3.671875 C 1.625 -1.890625 2.390625 -0.875 3.671875 -0.875 C 4.90625 -0.875 5.65625 -1.875 5.65625 -3.625 Z M 5.65625 -3.625 "/>
</g>
</g>
</defs>
<rect x="-120" y="-50" width="1440" height="600" fill="rgb(100%, 100%, 100%)" fill-opacity="1"/>
<path fill-rule="nonzero" fill="rgb(100%, 100%, 100%)" fill-opacity="1" d="M 44 461 L 587 461 L 587 16 L 44 16 Z M 44 461 "/>
<path fill-rule="nonzero" fill="rgb(100%, 100%, 100%)" fill-opacity="1" d="M 642 461 L 1184 461 L 1184 16 L 642 16 Z M 642 461 "/>
<path fill="none" stroke-width="1" stroke-linecap="butt" stroke-linejoin="miter" stroke="rgb(0%, 0%, 0%)" stroke-opacity="0.12" stroke-miterlimit="1.154701" d="M 88.863281 461 L 88.863281 16 "/>
<path fill="none" stroke-width="1" stroke-linecap="butt" stroke-linejoin="miter" stroke="rgb(0%, 0%, 0%)" stroke-opacity="0.12" stroke-miterlimit="1.154701" d="M 280.945312 461 L 280.945312 16 "/>
<path fill="none" stroke-width="1" stroke-linecap="butt" stroke-linejoin="miter" stroke="rgb(0%, 0%, 0%)" stroke-opacity="0.12" stroke-miterlimit="1.154701" d="M 473.027344 461 L 473.027344 16 "/>
<path fill="none" stroke-width="1" stroke-linecap="butt" stroke-linejoin="miter" stroke="rgb(0%, 0%, 0%)" stroke-opacity="0.12" stroke-miterlimit="1.154701" d="M 44 328.460938 L 587 328.460938 "/>
<path fill="none" stroke-width="1" stroke-linecap="butt" stroke-linejoin="miter" stroke="rgb(0%, 0%, 0%)" stroke-opacity="0.12" stroke-miterlimit="1.154701" d="M 44 188.523438 L 587 188.523438 "/>
<path fill="none" stroke-width="1" stroke-linecap="butt" stroke-linejoin="miter" stroke="rgb(0%, 0%, 0%)" stroke-opacity="0.12" stroke-miterlimit="1.154701" d="M 44 48.585938 L 587 48.585938 "/>
<path fill="none" stroke-width="1" stroke-linecap="butt" stroke-linejoin="miter" stroke="rgb(0%, 0%, 0%)" stroke-opacity="0.12" stroke-miterlimit="1.154701" d="M 735.335938 461 L 735.335938 16 "/>
<path fill="none" stroke-width="1" stroke-linecap="butt" stroke-linejoin="miter" stroke="rgb(0%, 0%, 0%)" stroke-opacity="0.12" stroke-miterlimit="1.154701" d="M 840.171875 461 L 840.171875 16 "/>
<path fill="none" stroke-width="1" stroke-linecap="butt" stroke-linejoin="miter" stroke="rgb(0%, 0%, 0%)" stroke-opacity="0.12" stroke-miterlimit="1.154701" d="M 945.007812 461 L 945.007812 16 "/>
<path fill="none" stroke-width="1" stroke-linecap="butt" stroke-linejoin="miter" stroke="rgb(0%, 0%, 0%)" stroke-opacity="0.12" stroke-miterlimit="1.154701" d="M 1049.84375 461 L 1049.84375 16 "/>
<path fill="none" stroke-width="1" stroke-linecap="butt" stroke-linejoin="miter" stroke="rgb(0%, 0%, 0%)" stroke-opacity="0.12" stroke-miterlimit="1.154701" d="M 1154.679688 461 L 1154.679688 16 "/>
<path fill="none" stroke-width="1" stroke-linecap="butt" stroke-linejoin="miter" stroke="rgb(0%, 0%, 0%)" stroke-opacity="0.12" stroke-miterlimit="1.154701" d="M 642 447.746094 L 1184 447.746094 "/>
<path fill="none" stroke-width="1" stroke-linecap="butt" stroke-linejoin="miter" stroke="rgb(0%, 0%, 0%)" stroke-opacity="0.12" stroke-miterlimit="1.154701" d="M 642 287.019531 L 1184 287.019531 "/>
<path fill="none" stroke-width="1" stroke-linecap="butt" stroke-linejoin="miter" stroke="rgb(0%, 0%, 0%)" stroke-opacity="0.12" stroke-miterlimit="1.154701" d="M 642 126.292969 L 1184 126.292969 "/>
<g fill="rgb(0%, 0%, 0%)" fill-opacity="1">
<use xlink:href="#glyph-0-0-10bf2094" x="75.044589" y="482.258"/>
</g>
<g fill="rgb(0%, 0%, 0%)" fill-opacity="1">
<use xlink:href="#glyph-0-1-10bf2094" x="83.220589" y="482.258"/>
</g>
<g fill="rgb(0%, 0%, 0%)" fill-opacity="1">
<use xlink:href="#glyph-0-2-10bf2094" x="91.004588" y="482.258"/>
</g>
<g fill="rgb(0%, 0%, 0%)" fill-opacity="1">
<use xlink:href="#glyph-0-3-10bf2094" x="94.896589" y="482.258"/>
</g>
<g fill="rgb(0%, 0%, 0%)" fill-opacity="1">
<use xlink:href="#glyph-0-1-10bf2094" x="271.214496" y="482.258"/>
</g>
<g fill="rgb(0%, 0%, 0%)" fill-opacity="1">
<use xlink:href="#glyph-0-2-10bf2094" x="278.998496" y="482.258"/>
</g>
<g fill="rgb(0%, 0%, 0%)" fill-opacity="1">
<use xlink:href="#glyph-0-1-10bf2094" x="282.890495" y="482.258"/>
</g>
<g fill="rgb(0%, 0%, 0%)" fill-opacity="1">
<use xlink:href="#glyph-0-1-10bf2094" x="463.296409" y="482.258"/>
</g>
<g fill="rgb(0%, 0%, 0%)" fill-opacity="1">
<use xlink:href="#glyph-0-2-10bf2094" x="471.080409" y="482.258"/>
</g>
<g fill="rgb(0%, 0%, 0%)" fill-opacity="1">
<use xlink:href="#glyph-0-3-10bf2094" x="474.972409" y="482.258"/>
</g>
<g fill="rgb(0%, 0%, 0%)" fill-opacity="1">
<use xlink:href="#glyph-0-1-10bf2094" x="14.540001" y="333.564616"/>
</g>
<g fill="rgb(0%, 0%, 0%)" fill-opacity="1">
<use xlink:href="#glyph-0-2-10bf2094" x="22.324002" y="333.564616"/>
</g>
<g fill="rgb(0%, 0%, 0%)" fill-opacity="1">
<use xlink:href="#glyph-0-1-10bf2094" x="26.216001" y="333.564616"/>
</g>
<g fill="rgb(0%, 0%, 0%)" fill-opacity="1">
<use xlink:href="#glyph-0-1-10bf2094" x="14.540001" y="193.625965"/>
</g>
<g fill="rgb(0%, 0%, 0%)" fill-opacity="1">
<use xlink:href="#glyph-0-2-10bf2094" x="22.324002" y="193.625965"/>
</g>
<g fill="rgb(0%, 0%, 0%)" fill-opacity="1">
<use xlink:href="#glyph-0-3-10bf2094" x="26.216001" y="193.625965"/>
</g>
<g fill="rgb(0%, 0%, 0%)" fill-opacity="1">
<use xlink:href="#glyph-0-1-10bf2094" x="14.540001" y="53.68733"/>
</g>
<g fill="rgb(0%, 0%, 0%)" fill-opacity="1">
<use xlink:href="#glyph-0-2-10bf2094" x="22.324002" y="53.68733"/>
</g>
<g fill="rgb(0%, 0%, 0%)" fill-opacity="1">
<use xlink:href="#glyph-0-4-10bf2094" x="26.216001" y="53.68733"/>
</g>
<path fill-rule="nonzero" fill="rgb(90.196079%, 62.352943%, 0%)" fill-opacity="1" d="M 326.773438 36.226562 C 326.773438 30.585938 318.3125 30.585938 318.3125 36.226562 C 318.3125 41.867188 326.773438 41.867188 326.773438 36.226562 Z M 326.773438 36.226562 "/>
<path fill-rule="nonzero" fill="rgb(90.196079%, 62.352943%, 0%)" fill-opacity="1" d="M 485.226562 372.378906 C 485.226562 366.738281 476.765625 366.738281 476.765625 372.378906 C 476.765625 378.019531 485.226562 378.019531 485.226562 372.378906 Z M 485.226562 372.378906 "/>
<path fill-rule="nonzero" fill="rgb(90.196079%, 62.352943%, 0%)" fill-opacity="1" d="M 354.171875 153.347656 C 354.171875 147.710938 345.714844 147.710938 345.714844 153.347656 C 345.714844 158.988281 354.171875 158.988281 354.171875 153.347656 Z M 354.171875 153.347656 "/>
<path fill-rule="nonzero" fill="rgb(90.196079%, 62.352943%, 0%)" fill-opacity="1" d="M 335.640625 192.574219 C 335.640625 186.933594 327.179688 186.933594 327.179688 192.574219 C 327.179688 198.214844 335.640625 198.214844 335.640625 192.574219 Z M 335.640625 192.574219 "/>
<path fill-rule="nonzero" fill="rgb(90.196079%, 62.352943%, 0%)" fill-opacity="1" d="M 415.457031 291.429688 C 415.457031 285.789062 406.996094 285.789062 406.996094 291.429688 C 406.996094 297.070312 415.457031 297.070312 415.457031 291.429688 Z M 415.457031 291.429688 "/>
<path fill-rule="nonzero" fill="rgb(90.196079%, 62.352943%, 0%)" fill-opacity="1" d="M 387.207031 206.082031 C 387.207031 200.441406 378.75 200.441406 378.75 206.082031 C 378.75 211.722656 387.207031 211.722656 387.207031 206.082031 Z M 387.207031 206.082031 "/>
<path fill-rule="nonzero" fill="rgb(90.196079%, 62.352943%, 0%)" fill-opacity="1" d="M 388.675781 293.148438 C 388.675781 287.507812 380.214844 287.507812 380.214844 293.148438 C 380.214844 298.785156 388.675781 298.785156 388.675781 293.148438 Z M 388.675781 293.148438 "/>
<path fill-rule="nonzero" fill="rgb(90.196079%, 62.352943%, 0%)" fill-opacity="1" d="M 381.441406 413.488281 C 381.441406 407.847656 372.980469 407.847656 372.980469 413.488281 C 372.980469 419.128906 381.441406 419.128906 381.441406 413.488281 Z M 381.441406 413.488281 "/>
<path fill-rule="nonzero" fill="rgb(90.196079%, 62.352943%, 0%)" fill-opacity="1" d="M 413.175781 376.828125 C 413.175781 371.1875 404.71875 371.1875 404.71875 376.828125 C 404.71875 382.46875 413.175781 382.46875 413.175781 376.828125 Z M 413.175781 376.828125 "/>
<path fill-rule="nonzero" fill="rgb(90.196079%, 62.352943%, 0%)" fill-opacity="1" d="M 471.425781 385.019531 C 471.425781 379.378906 462.964844 379.378906 462.964844 385.019531 C 462.964844 390.660156 471.425781 390.660156 471.425781 385.019531 Z M 471.425781 385.019531 "/>
<path fill-rule="nonzero" fill="rgb(90.196079%, 62.352943%, 0%)" fill-opacity="1" d="M 348.160156 248.25 C 348.160156 242.609375 339.699219 242.609375 339.699219 248.25 C 339.699219 253.890625 348.160156 253.890625 348.160156 248.25 Z M 348.160156 248.25 "/>
<path fill-rule="nonzero" fill="rgb(90.196079%, 62.352943%, 0%)" fill-opacity="1" d="M 451.621094 355.011719 C 451.621094 349.371094 443.160156 349.371094 443.160156 355.011719 C 443.160156 360.648438 451.621094 360.648438 451.621094 355.011719 Z M 451.621094 355.011719 "/>
<path fill-rule="nonzero" fill="rgb(90.196079%, 62.352943%, 0%)" fill-opacity="1" d="M 413.5625 353.078125 C 413.5625 347.4375 405.101562 347.4375 405.101562 353.078125 C 405.101562 358.71875 413.5625 358.71875 413.5625 353.078125 Z M 413.5625 353.078125 "/>
<path fill-rule="nonzero" fill="rgb(90.196079%, 62.352943%, 0%)" fill-opacity="1" d="M 438.871094 371.472656 C 438.871094 365.832031 430.410156 365.832031 430.410156 371.472656 C 430.410156 377.113281 438.871094 377.113281 438.871094 371.472656 Z M 438.871094 371.472656 "/>
<path fill-rule="nonzero" fill="rgb(90.196079%, 62.352943%, 0%)" fill-opacity="1" d="M 404.3125 395.597656 C 404.3125 389.957031 395.851562 389.957031 395.851562 395.597656 C 395.851562 401.238281 404.3125 401.238281 404.3125 395.597656 Z M 404.3125 395.597656 "/>
<path fill-rule="nonzero" fill="rgb(90.196079%, 62.352943%, 0%)" fill-opacity="1" d="M 393.644531 394.660156 C 393.644531 389.019531 385.183594 389.019531 385.183594 394.660156 C 385.183594 400.300781 393.644531 400.300781 393.644531 394.660156 Z M 393.644531 394.660156 "/>
<path fill-rule="nonzero" fill="rgb(90.196079%, 62.352943%, 0%)" fill-opacity="1" d="M 353.855469 132.382812 C 353.855469 126.746094 345.394531 126.746094 345.394531 132.382812 C 345.394531 138.023438 353.855469 138.023438 353.855469 132.382812 Z M 353.855469 132.382812 "/>
<path fill-rule="nonzero" fill="rgb(90.196079%, 62.352943%, 0%)" fill-opacity="1" d="M 408.226562 330.003906 C 408.226562 324.363281 399.765625 324.363281 399.765625 330.003906 C 399.765625 335.644531 408.226562 335.644531 408.226562 330.003906 Z M 408.226562 330.003906 "/>
<path fill-rule="nonzero" fill="rgb(90.196079%, 62.352943%, 0%)" fill-opacity="1" d="M 395.359375 378.136719 C 395.359375 372.5 386.898438 372.5 386.898438 378.136719 C 386.898438 383.777344 395.359375 383.777344 395.359375 378.136719 Z M 395.359375 378.136719 "/>
<path fill-rule="nonzero" fill="rgb(90.196079%, 62.352943%, 0%)" fill-opacity="1" d="M 566.546875 262.519531 C 566.546875 256.878906 558.089844 256.878906 558.089844 262.519531 C 558.089844 268.160156 566.546875 268.160156 566.546875 262.519531 Z M 566.546875 262.519531 "/>
<path fill-rule="nonzero" fill="rgb(90.196079%, 62.352943%, 0%)" fill-opacity="1" d="M 473.054688 399.039062 C 473.054688 393.398438 464.59375 393.398438 464.59375 399.039062 C 464.59375 404.679688 473.054688 404.679688 473.054688 399.039062 Z M 473.054688 399.039062 "/>
<path fill-rule="nonzero" fill="rgb(90.196079%, 62.352943%, 0%)" fill-opacity="1" d="M 422.230469 376.5 C 422.230469 370.859375 413.769531 370.859375 413.769531 376.5 C 413.769531 382.140625 422.230469 382.140625 422.230469 376.5 Z M 422.230469 376.5 "/>
<path fill-rule="nonzero" fill="rgb(90.196079%, 62.352943%, 0%)" fill-opacity="1" d="M 344.023438 181.425781 C 344.023438 175.785156 335.5625 175.785156 335.5625 181.425781 C 335.5625 187.066406 344.023438 187.066406 344.023438 181.425781 Z M 344.023438 181.425781 "/>
<path fill-rule="nonzero" fill="rgb(90.196079%, 62.352943%, 0%)" fill-opacity="1" d="M 434.078125 337.679688 C 434.078125 332.039062 425.621094 332.039062 425.621094 337.679688 C 425.621094 343.320312 434.078125 343.320312 434.078125 337.679688 Z M 434.078125 337.679688 "/>
<path fill-rule="nonzero" fill="rgb(90.196079%, 62.352943%, 0%)" fill-opacity="1" d="M 400.835938 295.875 C 400.835938 290.234375 392.375 290.234375 392.375 295.875 C 392.375 301.515625 400.835938 301.515625 400.835938 295.875 Z M 400.835938 295.875 "/>
<path fill-rule="nonzero" fill="rgb(90.196079%, 62.352943%, 0%)" fill-opacity="1" d="M 424.886719 353.0625 C 424.886719 347.421875 416.425781 347.421875 416.425781 353.0625 C 416.425781 358.703125 424.886719 358.703125 424.886719 353.0625 Z M 424.886719 353.0625 "/>
<path fill-rule="nonzero" fill="rgb(90.196079%, 62.352943%, 0%)" fill-opacity="1" d="M 378.078125 404.832031 C 378.078125 399.191406 369.617188 399.191406 369.617188 404.832031 C 369.617188 410.472656 378.078125 410.472656 378.078125 404.832031 Z M 378.078125 404.832031 "/>
<path fill-rule="nonzero" fill="rgb(90.196079%, 62.352943%, 0%)" fill-opacity="1" d="M 250.320312 440.773438 C 250.320312 435.132812 241.859375 435.132812 241.859375 440.773438 C 241.859375 446.414062 250.320312 446.414062 250.320312 440.773438 Z M 250.320312 440.773438 "/>
<path fill-rule="nonzero" fill="rgb(90.196079%, 62.352943%, 0%)" fill-opacity="1" d="M 303.304688 271.921875 C 303.304688 266.28125 294.84375 266.28125 294.84375 271.921875 C 294.84375 277.5625 303.304688 277.5625 303.304688 271.921875 Z M 303.304688 271.921875 "/>
<path fill-rule="nonzero" fill="rgb(90.196079%, 62.352943%, 0%)" fill-opacity="1" d="M 386.292969 301.246094 C 386.292969 295.605469 377.835938 295.605469 377.835938 301.246094 C 377.835938 306.882812 386.292969 306.882812 386.292969 301.246094 Z M 386.292969 301.246094 "/>
<path fill-rule="nonzero" fill="rgb(90.196079%, 62.352943%, 0%)" fill-opacity="1" d="M 428.472656 375.238281 C 428.472656 369.597656 420.015625 369.597656 420.015625 375.238281 C 420.015625 380.878906 428.472656 380.878906 428.472656 375.238281 Z M 428.472656 375.238281 "/>
<path fill-rule="nonzero" fill="rgb(90.196079%, 62.352943%, 0%)" fill-opacity="1" d="M 397.019531 333.121094 C 397.019531 327.480469 388.558594 327.480469 388.558594 333.121094 C 388.558594 338.761719 397.019531 338.761719 397.019531 333.121094 Z M 397.019531 333.121094 "/>
<path fill-rule="nonzero" fill="rgb(0%, 44.705883%, 69.803923%)" fill-opacity="1" d="M 290.363281 208.753906 C 290.363281 203.113281 281.902344 203.113281 281.902344 208.753906 C 281.902344 214.394531 290.363281 214.394531 290.363281 208.753906 Z M 290.363281 208.753906 "/>
<path fill-rule="nonzero" fill="rgb(0%, 44.705883%, 69.803923%)" fill-opacity="1" d="M 158.648438 340.492188 C 158.648438 334.851562 150.1875 334.851562 150.1875 340.492188 C 150.1875 346.132812 158.648438 346.132812 158.648438 340.492188 Z M 158.648438 340.492188 "/>
<path fill-rule="nonzero" fill="rgb(0%, 44.705883%, 69.803923%)" fill-opacity="1" d="M 208.5 422.460938 C 208.5 416.820312 200.039062 416.820312 200.039062 422.460938 C 200.039062 428.101562 208.5 428.101562 208.5 422.460938 Z M 208.5 422.460938 "/>
<path fill-rule="nonzero" fill="rgb(0%, 44.705883%, 69.803923%)" fill-opacity="1" d="M 72.910156 235.273438 C 72.910156 229.632812 64.453125 229.632812 64.453125 235.273438 C 64.453125 240.910156 72.910156 240.910156 72.910156 235.273438 Z M 72.910156 235.273438 "/>
<path fill-rule="nonzero" fill="rgb(0%, 44.705883%, 69.803923%)" fill-opacity="1" d="M 144.082031 316.621094 C 144.082031 310.980469 135.621094 310.980469 135.621094 316.621094 C 135.621094 322.257812 144.082031 322.257812 144.082031 316.621094 Z M 144.082031 316.621094 "/>
<path fill-rule="nonzero" fill="rgb(0%, 44.705883%, 69.803923%)" fill-opacity="1" d="M 166.316406 375.070312 C 166.316406 369.429688 157.859375 369.429688 157.859375 375.070312 C 157.859375 380.710938 166.316406 380.710938 166.316406 375.070312 Z M 166.316406 375.070312 "/>
<path fill-rule="nonzero" fill="rgb(0%, 44.705883%, 69.803923%)" fill-opacity="1" d="M 214.875 239.035156 C 214.875 233.398438 206.417969 233.398438 206.417969 239.035156 C 206.417969 244.675781 214.875 244.675781 214.875 239.035156 Z M 214.875 239.035156 "/>
<path fill-rule="nonzero" fill="rgb(0%, 44.705883%, 69.803923%)" fill-opacity="1" d="M 271.574219 324.703125 C 271.574219 319.0625 263.117188 319.0625 263.117188 324.703125 C 263.117188 330.34375 271.574219 330.34375 271.574219 324.703125 Z M 271.574219 324.703125 "/>
<path fill-rule="nonzero" fill="rgb(0%, 44.705883%, 69.803923%)" fill-opacity="1" d="M 227.871094 356.230469 C 227.871094 350.589844 219.410156 350.589844 219.410156 356.230469 C 219.410156 361.871094 227.871094 361.871094 227.871094 356.230469 Z M 227.871094 356.230469 "/>
<path fill-rule="nonzero" fill="rgb(0%, 44.705883%, 69.803923%)" fill-opacity="1" d="M 199.355469 340.945312 C 199.355469 335.308594 190.894531 335.308594 190.894531 340.945312 C 190.894531 346.585938 199.355469 346.585938 199.355469 340.945312 Z M 199.355469 340.945312 "/>
<path fill-rule="nonzero" fill="rgb(0%, 44.705883%, 69.803923%)" fill-opacity="1" d="M 208.441406 322.273438 C 208.441406 316.636719 199.980469 316.636719 199.980469 322.273438 C 199.980469 327.914062 208.441406 327.914062 208.441406 322.273438 Z M 208.441406 322.273438 "/>
<path fill-rule="nonzero" fill="rgb(0%, 44.705883%, 69.803923%)" fill-opacity="1" d="M 192.773438 347.480469 C 192.773438 341.839844 184.3125 341.839844 184.3125 347.480469 C 184.3125 353.121094 192.773438 353.121094 192.773438 347.480469 Z M 192.773438 347.480469 "/>
<path fill-rule="nonzero" fill="rgb(0%, 44.705883%, 69.803923%)" fill-opacity="1" d="M 154.671875 343.472656 C 154.671875 337.832031 146.210938 337.832031 146.210938 343.472656 C 146.210938 349.113281 154.671875 349.113281 154.671875 343.472656 Z M 154.671875 343.472656 "/>
<path fill-rule="nonzero" fill="rgb(0%, 44.705883%, 69.803923%)" fill-opacity="1" d="M 277.289062 381.765625 C 277.289062 376.125 268.828125 376.125 268.828125 381.765625 C 268.828125 387.402344 277.289062 387.402344 277.289062 381.765625 Z M 277.289062 381.765625 "/>
<path fill-rule="nonzero" fill="rgb(0%, 44.705883%, 69.803923%)" fill-opacity="1" d="M 216.816406 360.332031 C 216.816406 354.691406 208.355469 354.691406 208.355469 360.332031 C 208.355469 365.96875 216.816406 365.96875 216.816406 360.332031 Z M 216.816406 360.332031 "/>
<path fill-rule="nonzero" fill="rgb(0%, 44.705883%, 69.803923%)" fill-opacity="1" d="M 206.734375 377.902344 C 206.734375 372.261719 198.273438 372.261719 198.273438 377.902344 C 198.273438 383.542969 206.734375 383.542969 206.734375 377.902344 Z M 206.734375 377.902344 "/>
<path fill-rule="nonzero" fill="rgb(0%, 44.705883%, 69.803923%)" fill-opacity="1" d="M 194.472656 348.3125 C 194.472656 342.671875 186.011719 342.671875 186.011719 348.3125 C 186.011719 353.953125 194.472656 353.953125 194.472656 348.3125 Z M 194.472656 348.3125 "/>
<path fill-rule="nonzero" fill="rgb(0%, 44.705883%, 69.803923%)" fill-opacity="1" d="M 204.019531 378.925781 C 204.019531 373.285156 195.558594 373.285156 195.558594 378.925781 C 195.558594 384.566406 204.019531 384.566406 204.019531 378.925781 Z M 204.019531 378.925781 "/>
<path fill-rule="nonzero" fill="rgb(0%, 44.705883%, 69.803923%)" fill-opacity="1" d="M 131.789062 404.707031 C 131.789062 399.066406 123.328125 399.066406 123.328125 404.707031 C 123.328125 410.347656 131.789062 410.347656 131.789062 404.707031 Z M 131.789062 404.707031 "/>
<path fill-rule="nonzero" fill="rgb(0%, 44.705883%, 69.803923%)" fill-opacity="1" d="M 182.023438 233.324219 C 182.023438 227.683594 173.5625 227.683594 173.5625 233.324219 C 173.5625 238.964844 182.023438 238.964844 182.023438 233.324219 Z M 182.023438 233.324219 "/>
<path fill-rule="nonzero" fill="rgb(0%, 44.705883%, 69.803923%)" fill-opacity="1" d="M 267.863281 425.089844 C 267.863281 419.453125 259.402344 419.453125 259.402344 425.089844 C 259.402344 430.730469 267.863281 430.730469 267.863281 425.089844 Z M 267.863281 425.089844 "/>
<path fill-rule="nonzero" fill="rgb(0%, 44.705883%, 69.803923%)" fill-opacity="1" d="M 183.058594 288.4375 C 183.058594 282.796875 174.597656 282.796875 174.597656 288.4375 C 174.597656 294.078125 183.058594 294.078125 183.058594 288.4375 Z M 183.058594 288.4375 "/>
<path fill-rule="nonzero" fill="rgb(0%, 44.705883%, 69.803923%)" fill-opacity="1" d="M 256.050781 394.058594 C 256.050781 388.417969 247.589844 388.417969 247.589844 394.058594 C 247.589844 399.695312 256.050781 399.695312 256.050781 394.058594 Z M 256.050781 394.058594 "/>
<path fill-rule="nonzero" fill="rgb(0%, 44.705883%, 69.803923%)" fill-opacity="1" d="M 132.152344 319.90625 C 132.152344 314.265625 123.691406 314.265625 123.691406 319.90625 C 123.691406 325.546875 132.152344 325.546875 132.152344 319.90625 Z M 132.152344 319.90625 "/>
<path fill-rule="nonzero" fill="rgb(0%, 44.705883%, 69.803923%)" fill-opacity="1" d="M 194.953125 228.988281 C 194.953125 223.347656 186.492188 223.347656 186.492188 228.988281 C 186.492188 234.628906 194.953125 234.628906 194.953125 228.988281 Z M 194.953125 228.988281 "/>
<path fill-rule="nonzero" fill="rgb(0%, 44.705883%, 69.803923%)" fill-opacity="1" d="M 205.777344 363.859375 C 205.777344 358.21875 197.320312 358.21875 197.320312 363.859375 C 197.320312 369.5 205.777344 369.5 205.777344 363.859375 Z M 205.777344 363.859375 "/>
<path fill-rule="nonzero" fill="rgb(0%, 44.705883%, 69.803923%)" fill-opacity="1" d="M 214.570312 386.292969 C 214.570312 380.652344 206.109375 380.652344 206.109375 386.292969 C 206.109375 391.933594 214.570312 391.933594 214.570312 386.292969 Z M 214.570312 386.292969 "/>
<path fill-rule="nonzero" fill="rgb(0%, 44.705883%, 69.803923%)" fill-opacity="1" d="M 241.160156 348.542969 C 241.160156 342.902344 232.699219 342.902344 232.699219 348.542969 C 232.699219 354.183594 241.160156 354.183594 241.160156 348.542969 Z M 241.160156 348.542969 "/>
<path fill-rule="nonzero" fill="rgb(0%, 44.705883%, 69.803923%)" fill-opacity="1" d="M 233.378906 152.96875 C 233.378906 147.328125 224.921875 147.328125 224.921875 152.96875 C 224.921875 158.609375 233.378906 158.609375 233.378906 152.96875 Z M 233.378906 152.96875 "/>
<path fill-rule="nonzero" fill="rgb(0%, 44.705883%, 69.803923%)" fill-opacity="1" d="M 230.335938 383.527344 C 230.335938 377.886719 221.875 377.886719 221.875 383.527344 C 221.875 389.167969 230.335938 389.167969 230.335938 383.527344 Z M 230.335938 383.527344 "/>
<path fill-rule="nonzero" fill="rgb(0%, 44.705883%, 69.803923%)" fill-opacity="1" d="M 164.257812 153.703125 C 164.257812 148.0625 155.796875 148.0625 155.796875 153.703125 C 155.796875 159.34375 164.257812 159.34375 164.257812 153.703125 Z M 164.257812 153.703125 "/>
<path fill-rule="nonzero" fill="rgb(0%, 44.705883%, 69.803923%)" fill-opacity="1" d="M 200.734375 377.542969 C 200.734375 371.902344 192.273438 371.902344 192.273438 377.542969 C 192.273438 383.183594 200.734375 383.183594 200.734375 377.542969 Z M 200.734375 377.542969 "/>
<path fill-rule="nonzero" fill="rgb(0%, 44.705883%, 69.803923%)" fill-opacity="1" d="M 186.476562 341.902344 C 186.476562 336.261719 178.015625 336.261719 178.015625 341.902344 C 178.015625 347.542969 186.476562 347.542969 186.476562 341.902344 Z M 186.476562 341.902344 "/>
<path fill-rule="nonzero" fill="rgb(0%, 44.705883%, 69.803923%)" fill-opacity="1" d="M 188.144531 420.910156 C 188.144531 415.273438 179.683594 415.273438 179.683594 420.910156 C 179.683594 426.550781 188.144531 426.550781 188.144531 420.910156 Z M 188.144531 420.910156 "/>
<path fill-rule="nonzero" fill="rgb(0%, 44.705883%, 69.803923%)" fill-opacity="1" d="M 245.222656 321.136719 C 245.222656 315.496094 236.761719 315.496094 236.761719 321.136719 C 236.761719 326.777344 245.222656 326.777344 245.222656 321.136719 Z M 245.222656 321.136719 "/>
<path fill-rule="nonzero" fill="rgb(0%, 44.705883%, 69.803923%)" fill-opacity="1" d="M 252.289062 354.273438 C 252.289062 348.632812 243.832031 348.632812 243.832031 354.273438 C 243.832031 359.914062 252.289062 359.914062 252.289062 354.273438 Z M 252.289062 354.273438 "/>
<path fill-rule="nonzero" fill="rgb(0%, 44.705883%, 69.803923%)" fill-opacity="1" d="M 186.726562 418.152344 C 186.726562 412.511719 178.265625 412.511719 178.265625 418.152344 C 178.265625 423.792969 186.726562 423.792969 186.726562 418.152344 Z M 186.726562 418.152344 "/>
<path fill-rule="nonzero" fill="rgb(0%, 44.705883%, 69.803923%)" fill-opacity="1" d="M 194.664062 372.976562 C 194.664062 367.339844 186.203125 367.339844 186.203125 372.976562 C 186.203125 378.617188 194.664062 378.617188 194.664062 372.976562 Z M 194.664062 372.976562 "/>
<path fill-rule="nonzero" fill="rgb(0%, 44.705883%, 69.803923%)" fill-opacity="1" d="M 209.613281 282.792969 C 209.613281 277.152344 201.15625 277.152344 201.15625 282.792969 C 201.15625 288.433594 209.613281 288.433594 209.613281 282.792969 Z M 209.613281 282.792969 "/>
<path fill-rule="nonzero" fill="rgb(0%, 44.705883%, 69.803923%)" fill-opacity="1" d="M 229.824219 358.660156 C 229.824219 353.019531 221.367188 353.019531 221.367188 358.660156 C 221.367188 364.296875 229.824219 364.296875 229.824219 358.660156 Z M 229.824219 358.660156 "/>
<path fill-rule="nonzero" fill="rgb(0%, 44.705883%, 69.803923%)" fill-opacity="1" d="M 196.417969 263.789062 C 196.417969 258.148438 187.957031 258.148438 187.957031 263.789062 C 187.957031 269.429688 196.417969 269.429688 196.417969 263.789062 Z M 196.417969 263.789062 "/>
<path fill-rule="nonzero" fill="rgb(0%, 44.705883%, 69.803923%)" fill-opacity="1" d="M 281.515625 394.507812 C 281.515625 388.867188 273.054688 388.867188 273.054688 394.507812 C 273.054688 400.148438 281.515625 400.148438 281.515625 394.507812 Z M 281.515625 394.507812 "/>
<path fill-rule="nonzero" fill="rgb(0%, 44.705883%, 69.803923%)" fill-opacity="1" d="M 206.042969 337.894531 C 206.042969 332.253906 197.582031 332.253906 197.582031 337.894531 C 197.582031 343.535156 206.042969 343.535156 206.042969 337.894531 Z M 206.042969 337.894531 "/>
<path fill-rule="nonzero" fill="rgb(0%, 44.705883%, 69.803923%)" fill-opacity="1" d="M 208.992188 391.738281 C 208.992188 386.097656 200.53125 386.097656 200.53125 391.738281 C 200.53125 397.378906 208.992188 397.378906 208.992188 391.738281 Z M 208.992188 391.738281 "/>
<path fill-rule="nonzero" fill="rgb(0%, 44.705883%, 69.803923%)" fill-opacity="1" d="M 162.1875 300.421875 C 162.1875 294.785156 153.726562 294.785156 153.726562 300.421875 C 153.726562 306.0625 162.1875 306.0625 162.1875 300.421875 Z M 162.1875 300.421875 "/>
<path fill-rule="nonzero" fill="rgb(0%, 44.705883%, 69.803923%)" fill-opacity="1" d="M 226.558594 297.085938 C 226.558594 291.445312 218.101562 291.445312 218.101562 297.085938 C 218.101562 302.722656 226.558594 302.722656 226.558594 297.085938 Z M 226.558594 297.085938 "/>
<path fill-rule="nonzero" fill="rgb(0%, 44.705883%, 69.803923%)" fill-opacity="1" d="M 159.957031 353.578125 C 159.957031 347.9375 151.496094 347.9375 151.496094 353.578125 C 151.496094 359.21875 159.957031 359.21875 159.957031 353.578125 Z M 159.957031 353.578125 "/>
<path fill-rule="nonzero" fill="rgb(0%, 44.705883%, 69.803923%)" fill-opacity="1" d="M 212.160156 292.851562 C 212.160156 287.210938 203.699219 287.210938 203.699219 292.851562 C 203.699219 298.492188 212.160156 298.492188 212.160156 292.851562 Z M 212.160156 292.851562 "/>
<g fill="rgb(0%, 0%, 0%)" fill-opacity="1">
<use xlink:href="#glyph-0-0-10bf2094" x="721.519664" y="482.258"/>
</g>
<g fill="rgb(0%, 0%, 0%)" fill-opacity="1">
<use xlink:href="#glyph-0-1-10bf2094" x="729.695664" y="482.258"/>
</g>
<g fill="rgb(0%, 0%, 0%)" fill-opacity="1">
<use xlink:href="#glyph-0-2-10bf2094" x="737.479664" y="482.258"/>
</g>
<g fill="rgb(0%, 0%, 0%)" fill-opacity="1">
<use xlink:href="#glyph-0-5-10bf2094" x="741.371664" y="482.258"/>
</g>
<g fill="rgb(0%, 0%, 0%)" fill-opacity="1">
<use xlink:href="#glyph-0-1-10bf2094" x="830.443482" y="482.258"/>
</g>
<g fill="rgb(0%, 0%, 0%)" fill-opacity="1">
<use xlink:href="#glyph-0-2-10bf2094" x="838.227483" y="482.258"/>
</g>
<g fill="rgb(0%, 0%, 0%)" fill-opacity="1">
<use xlink:href="#glyph-0-1-10bf2094" x="842.119482" y="482.258"/>
</g>
<g fill="rgb(0%, 0%, 0%)" fill-opacity="1">
<use xlink:href="#glyph-0-1-10bf2094" x="935.279239" y="482.258"/>
</g>
<g fill="rgb(0%, 0%, 0%)" fill-opacity="1">
<use xlink:href="#glyph-0-2-10bf2094" x="943.06324" y="482.258"/>
</g>
<g fill="rgb(0%, 0%, 0%)" fill-opacity="1">
<use xlink:href="#glyph-0-5-10bf2094" x="946.955239" y="482.258"/>
</g>
<g fill="rgb(0%, 0%, 0%)" fill-opacity="1">
<use xlink:href="#glyph-0-1-10bf2094" x="1040.114996" y="482.258"/>
</g>
<g fill="rgb(0%, 0%, 0%)" fill-opacity="1">
<use xlink:href="#glyph-0-2-10bf2094" x="1047.898996" y="482.258"/>
</g>
<g fill="rgb(0%, 0%, 0%)" fill-opacity="1">
<use xlink:href="#glyph-0-3-10bf2094" x="1051.790996" y="482.258"/>
</g>
<g fill="rgb(0%, 0%, 0%)" fill-opacity="1">
<use xlink:href="#glyph-0-1-10bf2094" x="1144.950814" y="482.258"/>
</g>
<g fill="rgb(0%, 0%, 0%)" fill-opacity="1">
<use xlink:href="#glyph-0-2-10bf2094" x="1152.734814" y="482.258"/>
</g>
<g fill="rgb(0%, 0%, 0%)" fill-opacity="1">
<use xlink:href="#glyph-0-6-10bf2094" x="1156.626814" y="482.258"/>
</g>
<g fill="rgb(0%, 0%, 0%)" fill-opacity="1">
<use xlink:href="#glyph-0-0-10bf2094" x="604.364015" y="452.847821"/>
</g>
<g fill="rgb(0%, 0%, 0%)" fill-opacity="1">
<use xlink:href="#glyph-0-1-10bf2094" x="612.540016" y="452.847821"/>
</g>
<g fill="rgb(0%, 0%, 0%)" fill-opacity="1">
<use xlink:href="#glyph-0-2-10bf2094" x="620.324014" y="452.847821"/>
</g>
<g fill="rgb(0%, 0%, 0%)" fill-opacity="1">
<use xlink:href="#glyph-0-3-10bf2094" x="624.216015" y="452.847821"/>
</g>
<g fill="rgb(0%, 0%, 0%)" fill-opacity="1">
<use xlink:href="#glyph-0-1-10bf2094" x="612.540016" y="292.121743"/>
</g>
<g fill="rgb(0%, 0%, 0%)" fill-opacity="1">
<use xlink:href="#glyph-0-2-10bf2094" x="620.324016" y="292.121743"/>
</g>
<g fill="rgb(0%, 0%, 0%)" fill-opacity="1">
<use xlink:href="#glyph-0-1-10bf2094" x="624.216016" y="292.121743"/>
</g>
<g fill="rgb(0%, 0%, 0%)" fill-opacity="1">
<use xlink:href="#glyph-0-1-10bf2094" x="612.540016" y="131.395677"/>
</g>
<g fill="rgb(0%, 0%, 0%)" fill-opacity="1">
<use xlink:href="#glyph-0-2-10bf2094" x="620.324016" y="131.395677"/>
</g>
<g fill="rgb(0%, 0%, 0%)" fill-opacity="1">
<use xlink:href="#glyph-0-3-10bf2094" x="624.216016" y="131.395677"/>
</g>
<path fill-rule="nonzero" fill="rgb(0%, 44.705883%, 69.803923%)" fill-opacity="1" d="M 736.796875 383.960938 C 736.796875 378.320312 728.335938 378.320312 728.335938 383.960938 C 728.335938 389.601562 736.796875 389.601562 736.796875 383.960938 Z M 736.796875 383.960938 "/>
<path fill-rule="nonzero" fill="rgb(0%, 44.705883%, 69.803923%)" fill-opacity="1" d="M 747.304688 366.394531 C 747.304688 360.753906 738.84375 360.753906 738.84375 366.394531 C 738.84375 372.035156 747.304688 372.035156 747.304688 366.394531 Z M 747.304688 366.394531 "/>
<path fill-rule="nonzero" fill="rgb(0%, 44.705883%, 69.803923%)" fill-opacity="1" d="M 831.171875 440.773438 C 831.171875 435.132812 822.710938 435.132812 822.710938 440.773438 C 822.710938 446.414062 831.171875 446.414062 831.171875 440.773438 Z M 831.171875 440.773438 "/>
<path fill-rule="nonzero" fill="rgb(0%, 44.705883%, 69.803923%)" fill-opacity="1" d="M 747.511719 390.832031 C 747.511719 385.195312 739.054688 385.195312 739.054688 390.832031 C 739.054688 396.472656 747.511719 396.472656 747.511719 390.832031 Z M 747.511719 390.832031 "/>
<path fill-rule="nonzero" fill="rgb(0%, 44.705883%, 69.803923%)" fill-opacity="1" d="M 708.542969 170.453125 C 708.542969 164.8125 700.082031 164.8125 700.082031 170.453125 C 700.082031 176.09375 708.542969 176.09375 708.542969 170.453125 Z M 708.542969 170.453125 "/>
<path fill-rule="nonzero" fill="rgb(0%, 44.705883%, 69.803923%)" fill-opacity="1" d="M 720.863281 181.046875 C 720.863281 175.40625 712.40625 175.40625 712.40625 181.046875 C 712.40625 186.6875 720.863281 186.6875 720.863281 181.046875 Z M 720.863281 181.046875 "/>
<path fill-rule="nonzero" fill="rgb(0%, 44.705883%, 69.803923%)" fill-opacity="1" d="M 726.605469 220.132812 C 726.605469 214.492188 718.148438 214.492188 718.148438 220.132812 C 718.148438 225.773438 726.605469 225.773438 726.605469 220.132812 Z M 726.605469 220.132812 "/>
<path fill-rule="nonzero" fill="rgb(0%, 44.705883%, 69.803923%)" fill-opacity="1" d="M 805.222656 357.207031 C 805.222656 351.566406 796.761719 351.566406 796.761719 357.207031 C 796.761719 362.847656 805.222656 362.847656 805.222656 357.207031 Z M 805.222656 357.207031 "/>
<path fill-rule="nonzero" fill="rgb(0%, 44.705883%, 69.803923%)" fill-opacity="1" d="M 798.492188 343.207031 C 798.492188 337.566406 790.03125 337.566406 790.03125 343.207031 C 790.03125 348.847656 798.492188 348.847656 798.492188 343.207031 Z M 798.492188 343.207031 "/>
<path fill-rule="nonzero" fill="rgb(0%, 44.705883%, 69.803923%)" fill-opacity="1" d="M 773.492188 395.492188 C 773.492188 389.851562 765.03125 389.851562 765.03125 395.492188 C 765.03125 401.132812 773.492188 401.132812 773.492188 395.492188 Z M 773.492188 395.492188 "/>
<path fill-rule="nonzero" fill="rgb(0%, 44.705883%, 69.803923%)" fill-opacity="1" d="M 725.972656 340.589844 C 725.972656 334.953125 717.511719 334.953125 717.511719 340.589844 C 717.511719 346.230469 725.972656 346.230469 725.972656 340.589844 Z M 725.972656 340.589844 "/>
<path fill-rule="nonzero" fill="rgb(0%, 44.705883%, 69.803923%)" fill-opacity="1" d="M 702.753906 421.074219 C 702.753906 415.433594 694.292969 415.433594 694.292969 421.074219 C 694.292969 426.710938 702.753906 426.710938 702.753906 421.074219 Z M 702.753906 421.074219 "/>
<path fill-rule="nonzero" fill="rgb(0%, 44.705883%, 69.803923%)" fill-opacity="1" d="M 670.867188 329.535156 C 670.867188 323.894531 662.40625 323.894531 662.40625 329.535156 C 662.40625 335.175781 670.867188 335.175781 670.867188 329.535156 Z M 670.867188 329.535156 "/>
<path fill-rule="nonzero" fill="rgb(0%, 44.705883%, 69.803923%)" fill-opacity="1" d="M 689.21875 347.125 C 689.21875 341.484375 680.757812 341.484375 680.757812 347.125 C 680.757812 352.765625 689.21875 352.765625 689.21875 347.125 Z M 689.21875 347.125 "/>
<path fill-rule="nonzero" fill="rgb(0%, 44.705883%, 69.803923%)" fill-opacity="1" d="M 742.171875 350.851562 C 742.171875 345.210938 733.714844 345.210938 733.714844 350.851562 C 733.714844 356.492188 742.171875 356.492188 742.171875 350.851562 Z M 742.171875 350.851562 "/>
<path fill-rule="nonzero" fill="rgb(0%, 44.705883%, 69.803923%)" fill-opacity="1" d="M 796.3125 342.546875 C 796.3125 336.910156 787.851562 336.910156 787.851562 342.546875 C 787.851562 348.1875 796.3125 348.1875 796.3125 342.546875 Z M 796.3125 342.546875 "/>
<path fill-rule="nonzero" fill="rgb(0%, 44.705883%, 69.803923%)" fill-opacity="1" d="M 773.226562 332.269531 C 773.226562 326.628906 764.769531 326.628906 764.769531 332.269531 C 764.769531 337.910156 773.226562 337.910156 773.226562 332.269531 Z M 773.226562 332.269531 "/>
<path fill-rule="nonzero" fill="rgb(0%, 44.705883%, 69.803923%)" fill-opacity="1" d="M 757.3125 360.957031 C 757.3125 355.316406 748.851562 355.316406 748.851562 360.957031 C 748.851562 366.597656 757.3125 366.597656 757.3125 360.957031 Z M 757.3125 360.957031 "/>
<path fill-rule="nonzero" fill="rgb(0%, 44.705883%, 69.803923%)" fill-opacity="1" d="M 746.417969 362.480469 C 746.417969 356.839844 737.957031 356.839844 737.957031 362.480469 C 737.957031 368.121094 746.417969 368.121094 746.417969 362.480469 Z M 746.417969 362.480469 "/>
<path fill-rule="nonzero" fill="rgb(0%, 44.705883%, 69.803923%)" fill-opacity="1" d="M 802.882812 387.003906 C 802.882812 381.363281 794.421875 381.363281 794.421875 387.003906 C 794.421875 392.644531 802.882812 392.644531 802.882812 387.003906 Z M 802.882812 387.003906 "/>
<path fill-rule="nonzero" fill="rgb(0%, 44.705883%, 69.803923%)" fill-opacity="1" d="M 718.933594 184.796875 C 718.933594 179.160156 710.476562 179.160156 710.476562 184.796875 C 710.476562 190.4375 718.933594 190.4375 718.933594 184.796875 Z M 718.933594 184.796875 "/>
<path fill-rule="nonzero" fill="rgb(0%, 44.705883%, 69.803923%)" fill-opacity="1" d="M 756.730469 383.011719 C 756.730469 377.375 748.269531 377.375 748.269531 383.011719 C 748.269531 388.652344 756.730469 388.652344 756.730469 383.011719 Z M 756.730469 383.011719 "/>
<path fill-rule="nonzero" fill="rgb(0%, 44.705883%, 69.803923%)" fill-opacity="1" d="M 715.273438 330.644531 C 715.273438 325.007812 706.8125 325.007812 706.8125 330.644531 C 706.8125 336.285156 715.273438 336.285156 715.273438 330.644531 Z M 715.273438 330.644531 "/>
<path fill-rule="nonzero" fill="rgb(0%, 44.705883%, 69.803923%)" fill-opacity="1" d="M 782.816406 360.578125 C 782.816406 354.9375 774.355469 354.9375 774.355469 360.578125 C 774.355469 366.21875 782.816406 366.21875 782.816406 360.578125 Z M 782.816406 360.578125 "/>
<path fill-rule="nonzero" fill="rgb(0%, 44.705883%, 69.803923%)" fill-opacity="1" d="M 727.765625 368.757812 C 727.765625 363.117188 719.308594 363.117188 719.308594 368.757812 C 719.308594 374.398438 727.765625 374.398438 727.765625 368.757812 Z M 727.765625 368.757812 "/>
<path fill-rule="nonzero" fill="rgb(0%, 44.705883%, 69.803923%)" fill-opacity="1" d="M 739.921875 316.582031 C 739.921875 310.945312 731.460938 310.945312 731.460938 316.582031 C 731.460938 322.222656 739.921875 322.222656 739.921875 316.582031 Z M 739.921875 316.582031 "/>
<path fill-rule="nonzero" fill="rgb(0%, 44.705883%, 69.803923%)" fill-opacity="1" d="M 759.925781 329.546875 C 759.925781 323.90625 751.464844 323.90625 751.464844 329.546875 C 751.464844 335.1875 759.925781 335.1875 759.925781 329.546875 Z M 759.925781 329.546875 "/>
<path fill-rule="nonzero" fill="rgb(0%, 61.960787%, 45.09804%)" fill-opacity="1" d="M 806.703125 170.425781 C 806.703125 164.785156 798.242188 164.785156 798.242188 170.425781 C 798.242188 176.066406 806.703125 176.066406 806.703125 170.425781 Z M 806.703125 170.425781 "/>
<path fill-rule="nonzero" fill="rgb(0%, 61.960787%, 45.09804%)" fill-opacity="1" d="M 882.9375 400.578125 C 882.9375 394.9375 874.476562 394.9375 874.476562 400.578125 C 874.476562 406.21875 882.9375 406.21875 882.9375 400.578125 Z M 882.9375 400.578125 "/>
<path fill-rule="nonzero" fill="rgb(0%, 61.960787%, 45.09804%)" fill-opacity="1" d="M 778.761719 164.824219 C 778.761719 159.183594 770.304688 159.183594 770.304688 164.824219 C 770.304688 170.464844 778.761719 170.464844 778.761719 164.824219 Z M 778.761719 164.824219 "/>
<path fill-rule="nonzero" fill="rgb(0%, 61.960787%, 45.09804%)" fill-opacity="1" d="M 826.546875 298.847656 C 826.546875 293.207031 818.089844 293.207031 818.089844 298.847656 C 818.089844 304.488281 826.546875 304.488281 826.546875 298.847656 Z M 826.546875 298.847656 "/>
<path fill-rule="nonzero" fill="rgb(0%, 61.960787%, 45.09804%)" fill-opacity="1" d="M 816.292969 339.191406 C 816.292969 333.554688 807.832031 333.554688 807.832031 339.191406 C 807.832031 344.832031 816.292969 344.832031 816.292969 339.191406 Z M 816.292969 339.191406 "/>
<path fill-rule="nonzero" fill="rgb(0%, 61.960787%, 45.09804%)" fill-opacity="1" d="M 813.695312 305.222656 C 813.695312 299.582031 805.234375 299.582031 805.234375 305.222656 C 805.234375 310.863281 813.695312 310.863281 813.695312 305.222656 Z M 813.695312 305.222656 "/>
<path fill-rule="nonzero" fill="rgb(0%, 61.960787%, 45.09804%)" fill-opacity="1" d="M 756.816406 180.28125 C 756.816406 174.640625 748.355469 174.640625 748.355469 180.28125 C 748.355469 185.921875 756.816406 185.921875 756.816406 180.28125 Z M 756.816406 180.28125 "/>
<path fill-rule="nonzero" fill="rgb(0%, 61.960787%, 45.09804%)" fill-opacity="1" d="M 847.160156 367.285156 C 847.160156 361.644531 838.699219 361.644531 838.699219 367.285156 C 838.699219 372.925781 847.160156 372.925781 847.160156 367.285156 Z M 847.160156 367.285156 "/>
<path fill-rule="nonzero" fill="rgb(0%, 61.960787%, 45.09804%)" fill-opacity="1" d="M 792.589844 322.949219 C 792.589844 317.308594 784.128906 317.308594 784.128906 322.949219 C 784.128906 328.589844 792.589844 328.589844 792.589844 322.949219 Z M 792.589844 322.949219 "/>
<path fill-rule="nonzero" fill="rgb(0%, 61.960787%, 45.09804%)" fill-opacity="1" d="M 824.660156 357.949219 C 824.660156 352.3125 816.199219 352.3125 816.199219 357.949219 C 816.199219 363.589844 824.660156 363.589844 824.660156 357.949219 Z M 824.660156 357.949219 "/>
<path fill-rule="nonzero" fill="rgb(0%, 61.960787%, 45.09804%)" fill-opacity="1" d="M 780.636719 166.816406 C 780.636719 161.179688 772.175781 161.179688 772.175781 166.816406 C 772.175781 172.457031 780.636719 172.457031 780.636719 166.816406 Z M 780.636719 166.816406 "/>
<path fill-rule="nonzero" fill="rgb(0%, 61.960787%, 45.09804%)" fill-opacity="1" d="M 841.523438 327.667969 C 841.523438 322.027344 833.0625 322.027344 833.0625 327.667969 C 833.0625 333.308594 841.523438 333.308594 841.523438 327.667969 Z M 841.523438 327.667969 "/>
<path fill-rule="nonzero" fill="rgb(0%, 61.960787%, 45.09804%)" fill-opacity="1" d="M 856.195312 413.996094 C 856.195312 408.355469 847.734375 408.355469 847.734375 413.996094 C 847.734375 419.632812 856.195312 419.632812 856.195312 413.996094 Z M 856.195312 413.996094 "/>
<path fill-rule="nonzero" fill="rgb(0%, 61.960787%, 45.09804%)" fill-opacity="1" d="M 841.023438 177.472656 C 841.023438 171.832031 832.566406 171.832031 832.566406 177.472656 C 832.566406 183.113281 841.023438 183.113281 841.023438 177.472656 Z M 841.023438 177.472656 "/>
<path fill-rule="nonzero" fill="rgb(0%, 61.960787%, 45.09804%)" fill-opacity="1" d="M 803.921875 182.996094 C 803.921875 177.355469 795.464844 177.355469 795.464844 182.996094 C 795.464844 188.636719 803.921875 188.636719 803.921875 182.996094 Z M 803.921875 182.996094 "/>
<path fill-rule="nonzero" fill="rgb(0%, 61.960787%, 45.09804%)" fill-opacity="1" d="M 729.394531 199.3125 C 729.394531 193.671875 720.933594 193.671875 720.933594 199.3125 C 720.933594 204.953125 729.394531 204.953125 729.394531 199.3125 Z M 729.394531 199.3125 "/>
<path fill-rule="nonzero" fill="rgb(0%, 61.960787%, 45.09804%)" fill-opacity="1" d="M 779.5 36.226562 C 779.5 30.585938 771.039062 30.585938 771.039062 36.226562 C 771.039062 41.867188 779.5 41.867188 779.5 36.226562 Z M 779.5 36.226562 "/>
<path fill-rule="nonzero" fill="rgb(0%, 61.960787%, 45.09804%)" fill-opacity="1" d="M 795.527344 183.085938 C 795.527344 177.445312 787.066406 177.445312 787.066406 183.085938 C 787.066406 188.722656 795.527344 188.722656 795.527344 183.085938 Z M 795.527344 183.085938 "/>
<path fill-rule="nonzero" fill="rgb(0%, 61.960787%, 45.09804%)" fill-opacity="1" d="M 787.3125 312.875 C 787.3125 307.234375 778.851562 307.234375 778.851562 312.875 C 778.851562 318.511719 787.3125 318.511719 787.3125 312.875 Z M 787.3125 312.875 "/>
<path fill-rule="nonzero" fill="rgb(0%, 61.960787%, 45.09804%)" fill-opacity="1" d="M 859.71875 322.265625 C 859.71875 316.625 851.257812 316.625 851.257812 322.265625 C 851.257812 327.902344 859.71875 327.902344 859.71875 322.265625 Z M 859.71875 322.265625 "/>
<path fill-rule="nonzero" fill="rgb(0%, 61.960787%, 45.09804%)" fill-opacity="1" d="M 767.25 224.761719 C 767.25 219.121094 758.792969 219.121094 758.792969 224.761719 C 758.792969 230.402344 767.25 230.402344 767.25 224.761719 Z M 767.25 224.761719 "/>
<path fill-rule="nonzero" fill="rgb(0%, 61.960787%, 45.09804%)" fill-opacity="1" d="M 904.902344 346.210938 C 904.902344 340.574219 896.445312 340.574219 896.445312 346.210938 C 896.445312 351.851562 904.902344 351.851562 904.902344 346.210938 Z M 904.902344 346.210938 "/>
<path fill-rule="nonzero" fill="rgb(0%, 61.960787%, 45.09804%)" fill-opacity="1" d="M 859.28125 309.113281 C 859.28125 303.476562 850.820312 303.476562 850.820312 309.113281 C 850.820312 314.753906 859.28125 314.753906 859.28125 309.113281 Z M 859.28125 309.113281 "/>
<path fill-rule="nonzero" fill="rgb(0%, 61.960787%, 45.09804%)" fill-opacity="1" d="M 840.078125 353.714844 C 840.078125 348.074219 831.617188 348.074219 831.617188 353.714844 C 831.617188 359.355469 840.078125 359.355469 840.078125 353.714844 Z M 840.078125 353.714844 "/>
<path fill-rule="nonzero" fill="rgb(0%, 61.960787%, 45.09804%)" fill-opacity="1" d="M 811.738281 193.945312 C 811.738281 188.304688 803.28125 188.304688 803.28125 193.945312 C 803.28125 199.585938 811.738281 199.585938 811.738281 193.945312 Z M 811.738281 193.945312 "/>
<path fill-rule="nonzero" fill="rgb(0%, 61.960787%, 45.09804%)" fill-opacity="1" d="M 794.4375 191.394531 C 794.4375 185.757812 785.976562 185.757812 785.976562 191.394531 C 785.976562 197.035156 794.4375 197.035156 794.4375 191.394531 Z M 794.4375 191.394531 "/>
<path fill-rule="nonzero" fill="rgb(90.196079%, 62.352943%, 0%)" fill-opacity="1" d="M 1163.59375 280.878906 C 1163.59375 275.238281 1155.132812 275.238281 1155.132812 280.878906 C 1155.132812 286.519531 1163.59375 286.519531 1163.59375 280.878906 Z M 1163.59375 280.878906 "/>
<path fill-rule="nonzero" fill="rgb(90.196079%, 62.352943%, 0%)" fill-opacity="1" d="M 805.363281 131.804688 C 805.363281 126.164062 796.90625 126.164062 796.90625 131.804688 C 796.90625 137.441406 805.363281 137.441406 805.363281 131.804688 Z M 805.363281 131.804688 "/>
<path fill-rule="nonzero" fill="rgb(90.196079%, 62.352943%, 0%)" fill-opacity="1" d="M 1026.824219 336.984375 C 1026.824219 331.34375 1018.363281 331.34375 1018.363281 336.984375 C 1018.363281 342.625 1026.824219 342.625 1026.824219 336.984375 Z M 1026.824219 336.984375 "/>
<path fill-rule="nonzero" fill="rgb(90.196079%, 62.352943%, 0%)" fill-opacity="1" d="M 890.429688 212.667969 C 890.429688 207.027344 881.972656 207.027344 881.972656 212.667969 C 881.972656 218.308594 890.429688 218.308594 890.429688 212.667969 Z M 890.429688 212.667969 "/>
<path fill-rule="nonzero" fill="rgb(90.196079%, 62.352943%, 0%)" fill-opacity="1" d="M 1069.367188 199.175781 C 1069.367188 193.535156 1060.90625 193.535156 1060.90625 199.175781 C 1060.90625 204.8125 1069.367188 204.8125 1069.367188 199.175781 Z M 1069.367188 199.175781 "/>
<path fill-rule="nonzero" fill="rgb(90.196079%, 62.352943%, 0%)" fill-opacity="1" d="M 943.898438 204.160156 C 943.898438 198.519531 935.441406 198.519531 935.441406 204.160156 C 935.441406 209.800781 943.898438 209.800781 943.898438 204.160156 Z M 943.898438 204.160156 "/>
<path fill-rule="nonzero" fill="rgb(90.196079%, 62.352943%, 0%)" fill-opacity="1" d="M 1012.644531 383.667969 C 1012.644531 378.027344 1004.183594 378.027344 1004.183594 383.667969 C 1004.183594 389.308594 1012.644531 389.308594 1012.644531 383.667969 Z M 1012.644531 383.667969 "/>
<path fill-rule="nonzero" fill="rgb(90.196079%, 62.352943%, 0%)" fill-opacity="1" d="M 870.210938 151.777344 C 870.210938 146.136719 861.753906 146.136719 861.753906 151.777344 C 861.753906 157.417969 870.210938 157.417969 870.210938 151.777344 Z M 870.210938 151.777344 "/>
<path fill-rule="nonzero" fill="rgb(90.196079%, 62.352943%, 0%)" fill-opacity="1" d="M 1101.765625 236.503906 C 1101.765625 230.863281 1093.304688 230.863281 1093.304688 236.503906 C 1093.304688 242.144531 1101.765625 242.144531 1101.765625 236.503906 Z M 1101.765625 236.503906 "/>
<path fill-rule="nonzero" fill="rgb(90.196079%, 62.352943%, 0%)" fill-opacity="1" d="M 844.820312 157.789062 C 844.820312 152.148438 836.363281 152.148438 836.363281 157.789062 C 836.363281 163.429688 844.820312 163.429688 844.820312 157.789062 Z M 844.820312 157.789062 "/>
<path fill-rule="nonzero" fill="rgb(90.196079%, 62.352943%, 0%)" fill-opacity="1" d="M 981.828125 377.433594 C 981.828125 371.792969 973.371094 371.792969 973.371094 377.433594 C 973.371094 383.074219 981.828125 383.074219 981.828125 377.433594 Z M 981.828125 377.433594 "/>
<path fill-rule="nonzero" fill="rgb(90.196079%, 62.352943%, 0%)" fill-opacity="1" d="M 1077.511719 387.574219 C 1077.511719 381.933594 1069.054688 381.933594 1069.054688 387.574219 C 1069.054688 393.214844 1077.511719 393.214844 1077.511719 387.574219 Z M 1077.511719 387.574219 "/>
<path fill-rule="nonzero" fill="rgb(90.196079%, 62.352943%, 0%)" fill-opacity="1" d="M 994.695312 221.863281 C 994.695312 216.222656 986.234375 216.222656 986.234375 221.863281 C 986.234375 227.503906 994.695312 227.503906 994.695312 221.863281 Z M 994.695312 221.863281 "/>
<path fill-rule="nonzero" fill="rgb(90.196079%, 62.352943%, 0%)" fill-opacity="1" d="M 945.152344 224.160156 C 945.152344 218.523438 936.691406 218.523438 936.691406 224.160156 C 936.691406 229.800781 945.152344 229.800781 945.152344 224.160156 Z M 945.152344 224.160156 "/>
<path fill-rule="nonzero" fill="rgb(90.196079%, 62.352943%, 0%)" fill-opacity="1" d="M 1073.796875 354.53125 C 1073.796875 348.894531 1065.339844 348.894531 1065.339844 354.53125 C 1065.339844 360.171875 1073.796875 360.171875 1073.796875 354.53125 Z M 1073.796875 354.53125 "/>
<path fill-rule="nonzero" fill="rgb(90.196079%, 62.352943%, 0%)" fill-opacity="1" d="M 936.75 337.238281 C 936.75 331.601562 928.289062 331.601562 928.289062 337.238281 C 928.289062 342.878906 936.75 342.878906 936.75 337.238281 Z M 936.75 337.238281 "/>
<path fill-rule="nonzero" fill="rgb(90.196079%, 62.352943%, 0%)" fill-opacity="1" d="M 1100.96875 311.957031 C 1100.96875 306.316406 1092.507812 306.316406 1092.507812 311.957031 C 1092.507812 317.597656 1100.96875 317.597656 1100.96875 311.957031 Z M 1100.96875 311.957031 "/>
<path fill-rule="nonzero" fill="rgb(90.196079%, 62.352943%, 0%)" fill-opacity="1" d="M 885.320312 156.257812 C 885.320312 150.617188 876.859375 150.617188 876.859375 156.257812 C 876.859375 161.898438 885.320312 161.898438 885.320312 156.257812 Z M 885.320312 156.257812 "/>
<path fill-rule="nonzero" fill="rgb(90.196079%, 62.352943%, 0%)" fill-opacity="1" d="M 960.488281 177.816406 C 960.488281 172.175781 952.03125 172.175781 952.03125 177.816406 C 952.03125 183.457031 960.488281 183.457031 960.488281 177.816406 Z M 960.488281 177.816406 "/>
<path fill-rule="nonzero" fill="rgb(90.196079%, 62.352943%, 0%)" fill-opacity="1" d="M 976.375 385.28125 C 976.375 379.640625 967.914062 379.640625 967.914062 385.28125 C 967.914062 390.921875 976.375 390.921875 976.375 385.28125 Z M 976.375 385.28125 "/>
<path fill-rule="nonzero" fill="rgb(90.196079%, 62.352943%, 0%)" fill-opacity="1" d="M 1007.023438 351.222656 C 1007.023438 345.582031 998.5625 345.582031 998.5625 351.222656 C 998.5625 356.863281 1007.023438 356.863281 1007.023438 351.222656 Z M 1007.023438 351.222656 "/>
<path fill-rule="nonzero" fill="rgb(90.196079%, 62.352943%, 0%)" fill-opacity="1" d="M 882.3125 186.714844 C 882.3125 181.078125 873.851562 181.078125 873.851562 186.714844 C 873.851562 192.355469 882.3125 192.355469 882.3125 186.714844 Z M 882.3125 186.714844 "/>
<path fill-rule="nonzero" fill="rgb(90.196079%, 62.352943%, 0%)" fill-opacity="1" d="M 1069.074219 199.753906 C 1069.074219 194.113281 1060.613281 194.113281 1060.613281 199.753906 C 1060.613281 205.394531 1069.074219 205.394531 1069.074219 199.753906 Z M 1069.074219 199.753906 "/>
<path fill-rule="nonzero" fill="rgb(90.196079%, 62.352943%, 0%)" fill-opacity="1" d="M 979.269531 352.460938 C 979.269531 346.824219 970.808594 346.824219 970.808594 352.460938 C 970.808594 358.101562 979.269531 358.101562 979.269531 352.460938 Z M 979.269531 352.460938 "/>
<path fill-rule="nonzero" fill="rgb(90.196079%, 62.352943%, 0%)" fill-opacity="1" d="M 1041.1875 275.5 C 1041.1875 269.859375 1032.730469 269.859375 1032.730469 275.5 C 1032.730469 281.140625 1041.1875 281.140625 1041.1875 275.5 Z M 1041.1875 275.5 "/>
<path fill-rule="nonzero" fill="rgb(90.196079%, 62.352943%, 0%)" fill-opacity="1" d="M 995.222656 412.621094 C 995.222656 406.980469 986.765625 406.980469 986.765625 412.621094 C 986.765625 418.261719 995.222656 418.261719 995.222656 412.621094 Z M 995.222656 412.621094 "/>
<path fill-rule="nonzero" fill="rgb(90.196079%, 62.352943%, 0%)" fill-opacity="1" d="M 1020.390625 198.234375 C 1020.390625 192.59375 1011.929688 192.59375 1011.929688 198.234375 C 1011.929688 203.875 1020.390625 203.875 1020.390625 198.234375 Z M 1020.390625 198.234375 "/>
<path fill-rule="nonzero" fill="rgb(100%, 100%, 100%)" fill-opacity="1" stroke-width="1" stroke-linecap="butt" stroke-linejoin="miter" stroke="rgb(0%, 0%, 0%)" stroke-opacity="1" stroke-miterlimit="2" d="M 509 77 L 581 77 L 581 22 L 509 22 Z M 509 77 "/>
<path fill-rule="nonzero" fill="rgb(100%, 100%, 100%)" fill-opacity="1" stroke-width="1" stroke-linecap="butt" stroke-linejoin="miter" stroke="rgb(0%, 0%, 0%)" stroke-opacity="1" stroke-miterlimit="2" d="M 1115 100 L 1178 100 L 1178 22 L 1115 22 Z M 1115 100 "/>
<path fill="none" stroke-width="1" stroke-linecap="butt" stroke-linejoin="miter" stroke="rgb(0%, 0%, 0%)" stroke-opacity="1" stroke-miterlimit="1.154701" d="M 88.863281 461.5 L 88.863281 466.5 "/>
<path fill="none" stroke-width="1" stroke-linecap="butt" stroke-linejoin="miter" stroke="rgb(0%, 0%, 0%)" stroke-opacity="1" stroke-miterlimit="1.154701" d="M 280.945312 461.5 L 280.945312 466.5 "/>
<path fill="none" stroke-width="1" stroke-linecap="butt" stroke-linejoin="miter" stroke="rgb(0%, 0%, 0%)" stroke-opacity="1" stroke-miterlimit="1.154701" d="M 473.027344 461.5 L 473.027344 466.5 "/>
<path fill="none" stroke-width="1" stroke-linecap="butt" stroke-linejoin="miter" stroke="rgb(0%, 0%, 0%)" stroke-opacity="1" stroke-miterlimit="1.154701" d="M 43.5 328.460938 L 38.5 328.460938 "/>
<path fill="none" stroke-width="1" stroke-linecap="butt" stroke-linejoin="miter" stroke="rgb(0%, 0%, 0%)" stroke-opacity="1" stroke-miterlimit="1.154701" d="M 43.5 188.523438 L 38.5 188.523438 "/>
<path fill="none" stroke-width="1" stroke-linecap="butt" stroke-linejoin="miter" stroke="rgb(0%, 0%, 0%)" stroke-opacity="1" stroke-miterlimit="1.154701" d="M 43.5 48.585938 L 38.5 48.585938 "/>
<path fill-rule="nonzero" fill="rgb(90.196079%, 62.352943%, 0%)" fill-opacity="1" d="M 529.230469 38 C 529.230469 32.359375 520.769531 32.359375 520.769531 38 C 520.769531 43.640625 529.230469 43.640625 529.230469 38 Z M 529.230469 38 "/>
<path fill-rule="nonzero" fill="rgb(0%, 44.705883%, 69.803923%)" fill-opacity="1" d="M 529.230469 61 C 529.230469 55.359375 520.769531 55.359375 520.769531 61 C 520.769531 66.640625 529.230469 66.640625 529.230469 61 Z M 529.230469 61 "/>
<g fill="rgb(0%, 0%, 0%)" fill-opacity="1">
<use xlink:href="#glyph-0-7-10bf2094" x="540.000013" y="43.102978"/>
</g>
<g fill="rgb(0%, 0%, 0%)" fill-opacity="1">
<use xlink:href="#glyph-0-8-10bf2094" x="551.662013" y="43.102978"/>
</g>
<g fill="rgb(0%, 0%, 0%)" fill-opacity="1">
<use xlink:href="#glyph-0-9-10bf2094" x="554.770013" y="43.102978"/>
</g>
<g fill="rgb(0%, 0%, 0%)" fill-opacity="1">
<use xlink:href="#glyph-0-10-10bf2094" x="562.554013" y="43.102978"/>
</g>
<g fill="rgb(0%, 0%, 0%)" fill-opacity="1">
<use xlink:href="#glyph-0-11-10bf2094" x="570.338013" y="43.102978"/>
</g>
<g fill="rgb(0%, 0%, 0%)" fill-opacity="1">
<use xlink:href="#glyph-0-7-10bf2094" x="540.000013" y="66.10298"/>
</g>
<g fill="rgb(0%, 0%, 0%)" fill-opacity="1">
<use xlink:href="#glyph-0-12-10bf2094" x="551.662013" y="66.10298"/>
</g>
<g fill="rgb(0%, 0%, 0%)" fill-opacity="1">
<use xlink:href="#glyph-0-13-10bf2094" x="559.446013" y="66.10298"/>
</g>
<g fill="rgb(0%, 0%, 0%)" fill-opacity="1">
<use xlink:href="#glyph-0-10-10bf2094" x="562.554013" y="66.10298"/>
</g>
<g fill="rgb(0%, 0%, 0%)" fill-opacity="1">
<use xlink:href="#glyph-0-11-10bf2094" x="570.338013" y="66.10298"/>
</g>
<path fill="none" stroke-width="1" stroke-linecap="butt" stroke-linejoin="miter" stroke="rgb(0%, 0%, 0%)" stroke-opacity="1" stroke-miterlimit="1.154701" d="M 735.335938 461.5 L 735.335938 466.5 "/>
<path fill="none" stroke-width="1" stroke-linecap="butt" stroke-linejoin="miter" stroke="rgb(0%, 0%, 0%)" stroke-opacity="1" stroke-miterlimit="1.154701" d="M 840.171875 461.5 L 840.171875 466.5 "/>
<path fill="none" stroke-width="1" stroke-linecap="butt" stroke-linejoin="miter" stroke="rgb(0%, 0%, 0%)" stroke-opacity="1" stroke-miterlimit="1.154701" d="M 945.007812 461.5 L 945.007812 466.5 "/>
<path fill="none" stroke-width="1" stroke-linecap="butt" stroke-linejoin="miter" stroke="rgb(0%, 0%, 0%)" stroke-opacity="1" stroke-miterlimit="1.154701" d="M 1049.84375 461.5 L 1049.84375 466.5 "/>
<path fill="none" stroke-width="1" stroke-linecap="butt" stroke-linejoin="miter" stroke="rgb(0%, 0%, 0%)" stroke-opacity="1" stroke-miterlimit="1.154701" d="M 1154.679688 461.5 L 1154.679688 466.5 "/>
<path fill="none" stroke-width="1" stroke-linecap="butt" stroke-linejoin="miter" stroke="rgb(0%, 0%, 0%)" stroke-opacity="1" stroke-miterlimit="1.154701" d="M 641.5 447.746094 L 636.5 447.746094 "/>
<path fill="none" stroke-width="1" stroke-linecap="butt" stroke-linejoin="miter" stroke="rgb(0%, 0%, 0%)" stroke-opacity="1" stroke-miterlimit="1.154701" d="M 641.5 287.019531 L 636.5 287.019531 "/>
<path fill="none" stroke-width="1" stroke-linecap="butt" stroke-linejoin="miter" stroke="rgb(0%, 0%, 0%)" stroke-opacity="1" stroke-miterlimit="1.154701" d="M 641.5 126.292969 L 636.5 126.292969 "/>
<path fill-rule="nonzero" fill="rgb(0%, 44.705883%, 69.803923%)" fill-opacity="1" d="M 1135 38 C 1135 32.359375 1126.539062 32.359375 1126.539062 38 C 1126.539062 43.640625 1135 43.640625 1135 38 Z M 1135 38 "/>
<path fill-rule="nonzero" fill="rgb(0%, 61.960787%, 45.09804%)" fill-opacity="1" d="M 1135 61 C 1135 55.359375 1126.539062 55.359375 1126.539062 61 C 1126.539062 66.640625 1135 66.640625 1135 61 Z M 1135 61 "/>
<path fill-rule="nonzero" fill="rgb(90.196079%, 62.352943%, 0%)" fill-opacity="1" d="M 1135 84 C 1135 78.359375 1126.539062 78.359375 1126.539062 84 C 1126.539062 89.640625 1135 89.640625 1135 84 Z M 1135 84 "/>
<g fill="rgb(0%, 0%, 0%)" fill-opacity="1">
<use xlink:href="#glyph-0-14-10bf2094" x="1145.770047" y="43.102978"/>
</g>
<g fill="rgb(0%, 0%, 0%)" fill-opacity="1">
<use xlink:href="#glyph-0-10-10bf2094" x="1148.878047" y="43.102978"/>
</g>
<g fill="rgb(0%, 0%, 0%)" fill-opacity="1">
<use xlink:href="#glyph-0-15-10bf2094" x="1156.662048" y="43.102978"/>
</g>
<g fill="rgb(0%, 0%, 0%)" fill-opacity="1">
<use xlink:href="#glyph-0-7-10bf2094" x="1145.770025" y="66.10298"/>
</g>
<g fill="rgb(0%, 0%, 0%)" fill-opacity="1">
<use xlink:href="#glyph-0-8-10bf2094" x="1157.432025" y="66.10298"/>
</g>
<g fill="rgb(0%, 0%, 0%)" fill-opacity="1">
<use xlink:href="#glyph-0-16-10bf2094" x="1160.540025" y="66.10298"/>
</g>
<g fill="rgb(0%, 0%, 0%)" fill-opacity="1">
<use xlink:href="#glyph-0-17-10bf2094" x="1145.770027" y="89.102981"/>
</g>
<g fill="rgb(0%, 0%, 0%)" fill-opacity="1">
<use xlink:href="#glyph-0-8-10bf2094" x="1153.554027" y="89.102981"/>
</g>
<g fill="rgb(0%, 0%, 0%)" fill-opacity="1">
<use xlink:href="#glyph-0-18-10bf2094" x="1156.662028" y="89.102981"/>
</g>
<g fill="rgb(0%, 0%, 0%)" fill-opacity="1">
<use xlink:href="#glyph-0-17-10bf2094" x="1164.446028" y="89.102981"/>
</g>
<path fill="none" stroke-width="1" stroke-linecap="butt" stroke-linejoin="miter" stroke="rgb(0%, 0%, 0%)" stroke-opacity="1" stroke-miterlimit="1.154701" d="M 43.5 461 L 587.5 461 "/>
<path fill="none" stroke-width="1" stroke-linecap="butt" stroke-linejoin="miter" stroke="rgb(0%, 0%, 0%)" stroke-opacity="1" stroke-miterlimit="1.154701" d="M 44 461.5 L 44 15.5 "/>
<path fill="none" stroke-width="1" stroke-linecap="butt" stroke-linejoin="miter" stroke="rgb(0%, 0%, 0%)" stroke-opacity="1" stroke-miterlimit="1.154701" d="M 43.5 16 L 587.5 16 "/>
<path fill="none" stroke-width="1" stroke-linecap="butt" stroke-linejoin="miter" stroke="rgb(0%, 0%, 0%)" stroke-opacity="1" stroke-miterlimit="1.154701" d="M 587 461.5 L 587 15.5 "/>
<path fill="none" stroke-width="1" stroke-linecap="butt" stroke-linejoin="miter" stroke="rgb(0%, 0%, 0%)" stroke-opacity="1" stroke-miterlimit="1.154701" d="M 641.5 461 L 1184.5 461 "/>
<path fill="none" stroke-width="1" stroke-linecap="butt" stroke-linejoin="miter" stroke="rgb(0%, 0%, 0%)" stroke-opacity="1" stroke-miterlimit="1.154701" d="M 642 461.5 L 642 15.5 "/>
<path fill="none" stroke-width="1" stroke-linecap="butt" stroke-linejoin="miter" stroke="rgb(0%, 0%, 0%)" stroke-opacity="1" stroke-miterlimit="1.154701" d="M 641.5 16 L 1184.5 16 "/>
<path fill="none" stroke-width="1" stroke-linecap="butt" stroke-linejoin="miter" stroke="rgb(0%, 0%, 0%)" stroke-opacity="1" stroke-miterlimit="1.154701" d="M 1184 461.5 L 1184 15.5 "/>
</svg>
